<svg xmlns="http://www.w3.org/2000/svg" xmlns:xlink="http://www.w3.org/1999/xlink" version="1.1" x="0px" y="0px" viewBox="0 0 91 91" enable-background="new 0 0 91 91" xml:space="preserve" style="fill: #FFF829"><g><path d="M3.494,51.682c0.188,0,0.38-0.021,0.571-0.066c1.352-0.314,2.192-1.664,1.879-3.016c-0.416-1.789-0.631-3.698-0.64-5.678   c-0.007-1.384-1.13-2.501-2.513-2.501c-0.004,0-0.008,0-0.012,0c-1.387,0.006-2.507,1.136-2.501,2.523   c0.011,2.355,0.27,4.641,0.771,6.793C1.319,50.896,2.353,51.682,3.494,51.682z"></path><path d="M4.972,58.529c4.709,6.633,12.779,10.684,22.144,11.115c0.573,0.027,1.144,0.039,1.716,0.039   c11.415,0,22.645-5.215,30.325-14.162c6.33-7.369,4.88-14.594,0.854-18.188c-3.901-3.482-10.722-3.913-16.21,2.004   c-0.943,1.017-0.885,2.607,0.133,3.551c1.018,0.943,2.608,0.884,3.551-0.134c3.439-3.708,7.17-3.467,9.18-1.672   c2.331,2.08,2.826,6.34-1.318,11.166c-7.066,8.232-17.537,12.857-27.998,12.377c-7.809-0.359-14.471-3.642-18.277-9.006   c-0.805-1.132-2.374-1.397-3.504-0.594C4.435,55.828,4.168,57.396,4.972,58.529z"></path><path d="M59.099,79.643c-1.037,0.921-1.131,2.509-0.209,3.547c0.496,0.559,1.186,0.844,1.879,0.844   c0.594,0,1.189-0.209,1.668-0.635c10.734-9.533,19.015-25.029,11.826-36.523c-0.735-1.177-2.285-1.533-3.463-0.799   c-1.176,0.736-1.533,2.287-0.798,3.463C75.393,58.158,68.597,71.207,59.099,79.643z"></path><path d="M62.737,66.694c0.84-1.104,0.626-2.681-0.479-3.521c-1.104-0.841-2.682-0.627-3.521,0.478   C47.696,78.166,23.255,85.955,11.193,78.805c-1.194-0.707-2.735-0.313-3.442,0.881c-0.707,1.193-0.313,2.734,0.881,3.441   c4.135,2.451,9.004,3.538,14.146,3.538C37.39,86.665,54.218,77.893,62.737,66.694z"></path><path d="M73.169,23.165c-14.206-5.026-31.438,0.175-41.908,12.644c-6.219,7.403-4.688,14.584-0.636,18.123   c1.787,1.561,4.165,2.492,6.735,2.492c3.123,0,6.533-1.375,9.517-4.66c0.933-1.027,0.856-2.617-0.171-3.55   c-1.028-0.933-2.617-0.854-3.55,0.171c-3.416,3.764-7.177,3.551-9.226,1.762c-2.341-2.043-2.885-6.271,1.178-11.106   c10.206-12.15,26.029-14.8,36.385-11.138c5.115,1.809,13.732,6.786,13.977,19.789c0.025,1.388,1.194,2.447,2.559,2.466   c1.388-0.026,2.491-1.172,2.465-2.56C90.274,35.887,83.959,26.981,73.169,23.165z"></path><path d="M18.339,45.789c0.469,0,0.944-0.131,1.367-0.406c1.164-0.756,1.493-2.313,0.736-3.476   c-5.533-8.508,1.085-21.588,10.482-30.113c1.027-0.932,1.105-2.521,0.173-3.549c-0.932-1.028-2.521-1.105-3.549-0.173   C16.915,17.719,8.837,33.279,16.229,44.646C16.712,45.387,17.517,45.789,18.339,45.789z"></path><path d="M27.495,24.73c-0.828,1.113-0.596,2.688,0.518,3.515c0.45,0.335,0.977,0.497,1.497,0.497c0.768,0,1.524-0.351,2.019-1.014   c10.863-14.61,35.277-22.687,47.496-15.712c1.205,0.687,2.739,0.268,3.428-0.937c0.688-1.205,0.27-2.74-0.936-3.428   C65.447-1.521,38.825,9.493,27.495,24.73z"></path><path d="M88.786,58.16c0.47-0.471,0.74-1.12,0.74-1.78s-0.271-1.31-0.74-1.771c-0.93-0.939-2.609-0.939-3.551,0   c-0.469,0.461-0.739,1.11-0.739,1.771s0.271,1.31,0.739,1.78c0.471,0.46,1.111,0.73,1.781,0.73   C87.677,58.891,88.326,58.62,88.786,58.16z"></path></g></svg>